HIERARCHY
ROOT HipCenter
{
    OFFSET 0.0 0.0 -0.0
    CHANNELS 6 Xposition Yposition Zposition Zrotation Xrotation Yrotation
    JOINT Spine
    {
        OFFSET 0.0 11.543257713317871 0.0
        CHANNELS 3 Zrotation Xrotation Yrotation
        JOINT ShoulderCenter
        {
            OFFSET 0.0 32.91801452636719 0.0
            CHANNELS 3 Zrotation Xrotation Yrotation
            JOINT LeftShoulder
            {
                OFFSET 18.90908432006836 0.0 0.0
                CHANNELS 3 Zrotation Xrotation Yrotation
                JOINT LeftElbow
                {
                    OFFSET 28.86017608642578 0.0 0.0
                    CHANNELS 3 Zrotation Xrotation Yrotation
                    JOINT LeftWrist
                    {
                        OFFSET 29.32445526123047 0.0 0.0
                        CHANNELS 3 Zrotation Xrotation Yrotation
                        JOINT LeftHand
                        {
                            OFFSET 3.776988983154297 0.0 0.0
                            CHANNELS 3 Zrotation Xrotation Yrotation
                            End Site
                            {
                                OFFSET 1.5107955932617188 0.0 0.0
                            }
                        }
                    }
                }
            }
            JOINT RightShoulder
            {
                OFFSET -18.90908432006836 0.0 0.0
                CHANNELS 3 Zrotation Xrotation Yrotation
                JOINT RightElbow
                {
                    OFFSET -28.86017608642578 0.0 0.0
                    CHANNELS 3 Zrotation Xrotation Yrotation
                    JOINT RightWrist
                    {
                        OFFSET -29.32445526123047 0.0 0.0
                        CHANNELS 3 Zrotation Xrotation Yrotation
                        JOINT RightHand
                        {
                            OFFSET -3.776988983154297 0.0 0.0
                            CHANNELS 3 Zrotation Xrotation Yrotation
                            End Site
                            {
                                OFFSET -1.5107955932617188 0.0 0.0
                            }
                        }
                    }
                }
            }
            End Site
            {
                OFFSET 0.0 13.167206764221191 0.0
            }
        }
    }
    JOINT LeftHip
    {
        OFFSET 13.487537384033203 0.0 0.0
        CHANNELS 3 Zrotation Xrotation Yrotation
        JOINT LeftKnee
        {
            OFFSET 0.0 -41.17974090576172 0.0
            CHANNELS 3 Zrotation Xrotation Yrotation
            JOINT LeftAnkle
            {
                OFFSET 0.0 -42.33354949951172 0.0
                CHANNELS 3 Zrotation Xrotation Yrotation
                JOINT LeftFoot
                {
                    OFFSET 0.0 -13.487957000732422 0.0
                    CHANNELS 3 Zrotation Xrotation Yrotation
                    End Site
                    {
                        OFFSET 0.0 0.0 5.3951826095581055
                    }
                }
            }
        }
    }
    JOINT RightHip
    {
        OFFSET -13.487537384033203 0.0 0.0
        CHANNELS 3 Zrotation Xrotation Yrotation
        JOINT RightKnee
        {
            OFFSET 0.0 -41.17974090576172 0.0
            CHANNELS 3 Zrotation Xrotation Yrotation
            JOINT RightAnkle
            {
                OFFSET 0.0 -42.33354949951172 0.0
                CHANNELS 3 Zrotation Xrotation Yrotation
                JOINT RightFoot
                {
                    OFFSET 0.0 -13.487957000732422 0.0
                    CHANNELS 3 Zrotation Xrotation Yrotation
                    End Site
                    {
                        OFFSET 0.0 0.0 5.3951826095581055
                    }
                }
            }
        }
    }
}
MOTION
Frames: 8
Frame Time: 0.03333333333333333
75.0 54.5 253.3000030517578 -1.481472445722164 2.4673692951082478 -172.75467087579665 -7.332529275944506 8.668582991029707 -0.04469226937769382 -7.68631382044314e-07 7.807730206561472e-07 -8.872897888552115 113.02517433892389 8.817457235377642 -85.92826202396549 1.6375481119196202e-06 -1.5770681959311417e-06 72.36587299876557 4.649024068152881e-06 14.687599941041972 17.03765841202322 2.1866313435061676e-15 -7.951386703658792e-16 1.517280289954742e-32 -90.32065692737027 -2.4822994440213946 91.72707098251033 2.656677576767876e-06 -1.6496685592495391e-06 -87.68275699247788 -9.059586704852718e-07 -44.653932764950284 -31.644754904094263 -1.5902773407317582e-15 0.0 0.0 -0.8136368618256032 -3.7203318221645216 -28.474010051753492 -16.408810358344148 27.335445434099164 -21.527577178257506 111.5990052661095 -37.423375817000796 158.44033581348125 -3.1805546814635176e-15 8.827812596100317e-32 -3.1805546814635176e-15 1.277665307179821 -3.1912651235753873 22.933381056418785 14.277587569527935 25.493192384309683 13.782521053956401 -110.68251057817909 -31.63881740091035 -154.11583898878345 -3.1805546814635168e-15 8.827812596100317e-32 -3.1805546814635168e-15
74.80000305175781 54.599998474121094 253.50001525878906 0.4982420144841006 2.489383016605324 -174.0352491772976 -5.502479715300507 8.484668356557549 0.07852980314436113 1.6420562991851166e-07 -1.876500966211297e-07 -7.59699960446701 111.32013677431368 6.075686859763572 -85.21154252198899 -1.6258541008017863e-06 2.9802564919467803e-06 72.38580299502335 -1.3806774699452046e-06 17.76350339465246 18.248387582900875 5.963540027744096e-16 0.0 0.0 -90.36829039289026 -1.5111332160141475 91.85594491067788 -8.862597131373074e-07 4.787553636992845e-06 -88.00057574826616 -4.205515802871587e-06 -47.66742447539651 -30.51289431116814 1.5902773407317584e-15 0.0 0.0 1.3884680743416886 -3.7804698311443214 -28.583183665373973 -17.169314046978574 26.594574665312663 -20.716198667083027 111.41626838242331 -37.37521163151819 158.2306369368901 3.1805546814635168e-15 1.7655625192200634e-31 6.3611093629270335e-15 3.4123553807462765 -3.7826086074400402 22.255376720821157 13.317514927539618 26.338537565458537 15.085893278062189 -110.18096646624869 -32.39201807267631 -154.18072189304038 0.0 0.0 0.0
74.5 54.599998474121094 253.6999969482422 1.4943488017348465 2.4887833079775405 -174.4505270820788 -4.201776794619743 8.495817775585635 -0.02604787265645326 1.495709649387133e-07 2.649123872919717e-07 -6.794559446102236 110.05882658177299 3.968366365277312 -85.01310758062968 5.766010314679432e-07 -1.3141194483678921e-06 72.83337653789023 -7.645747886453265e-07 19.828533729356668 19.493549883498503 -7.95138670365879e-15 -7.951386703658791e-16 -5.517382872562698e-32 -90.785924683544 -0.5478538042732968 91.76885075977997 -1.83285235821898e-07 2.8276971885355815e-06 -87.2911365791663 3.3941720977663174e-07 -49.42472252753226 -32.18591778961766 6.3611093629270335e-15 -3.531125038440127e-31 -6.3611093629270335e-15 2.1070769546701045 -3.9813086429045503 -27.856305066884886 -16.798502623763532 26.600264059895075 -20.829365259168252 111.22958325498288 -38.10561637179095 157.86367614704548 -6.3611093629270335e-15 -6.3611093629270335e-15 -3.531125038440127e-31 4.094905973104622 -4.356712670949117 21.82035486837697 13.41063496202902 27.0260656786005 15.55426640138922 -110.32534846160829 -32.28228722005766 -154.36081500187404 1.7655625192200634e-31 6.3611093629270335e-15 -3.1805546814635168e-15
74.19999694824219 54.599998474121094 254.0 2.4681184430347547 1.9730736383397145 -174.9553314449388 -3.341753560743768 7.863036197423621 0.03870953805275692 6.485197444790928e-08 1.4334204167735343e-07 -6.07470746407464 110.25424154464712 2.563664394548903 -85.05640116951056 3.432424019484687e-06 -2.9230093840714717e-06 72.96037594764547 3.837225172831372e-06 13.822670930888197 21.770103725187408 -2.5842006786891076e-15 -4.4828735839571924e-32 1.987846675914698e-15 -90.66551321255281 0.5547494500418848 92.05989993028277 -2.2967540685728382e-06 -1.5631016805590263e-08 -86.99019250965102 -2.392333379897497e-08 -49.26861840497463 -32.42993034803603 -3.1805546814635176e-15 -8.827812596100317e-32 3.1805546814635176e-15 2.794862709495592 -4.397613905677491 -28.1962561178634 -16.71048109076386 26.077167557202564 -20.09244004716624 110.07510673857702 -39.54964493589703 156.08247151269939 -3.1805546814635164e-15 8.827812596100317e-32 -3.1805546814635164e-15 4.896906516706557 -5.178998594554413 21.86919730684608 13.309954428576875 27.09139066186924 15.62324961612635 -110.06968697997485 -32.70486288685323 -153.92666626312663 0.0 0.0 3.1805546814635164e-15
74.0 54.70000076293945 254.20001220703125 3.9793991834906794 2.4834835260118773 -175.3479903057295 -1.6412826729338716 8.561288405488732 -0.09501062551854526 -8.063972937188777e-08 3.6926620398888234e-07 -5.398744829129951 109.52741825180662 0.7150561010080609 -85.68788181956882 1.9128279242574796e-06 -1.9525814872382014e-06 73.20364232623474 2.0489643349863718e-06 10.076008923860924 27.96098465778679 4.572047354603806e-15 0.0 0.0 -90.72346687821955 1.3074951521999365 92.16111529372819 9.577153965454527e-07 3.718508326116308e-06 -86.81619600984327 4.911700951674141e-06 -48.894399541340846 -32.7253572689165 3.975693351829395e-15 6.361109362927032e-15 3.1805546814635156e-15 4.212082138981998 -4.140660058667418 -27.748533432699723 -16.466720968259352 26.372689066810867 -20.951650462286967 110.30048099349801 -38.35329917864509 157.36539000049837 -1.7655625192200634e-31 6.361109362927035e-15 3.1805546814635176e-15 6.46420064084361 -4.918477246554457 21.226111693691465 12.81545483744614 27.28628407632788 15.938906160796696 -109.50670955159434 -33.1729746658414 -153.40029450732027 0.0 0.0 -3.1805546814635168e-15
73.79999542236328 54.79999923706055 254.5 4.9697421147329655 2.480206177992614 -176.53995225885535 -0.8339457689681901 8.655252046365653 -0.020184409312609945 -2.9511242442465156e-07 3.8393953717610757e-07 -4.106787123713937 108.75857331672852 -1.209204407190266 -85.68489406296104 1.4036423901744714e-08 2.3338457625656873e-06 72.63889587773085 -5.465319443459612e-06 9.308519598484462 30.129506382236492 9.14409470920761e-15 0.0 0.0 -90.57010342231185 2.0712820776848324 92.22745707971887 -4.219389523373989e-07 8.251445942058442e-07 -86.67747262178882 -1.6930868944440632e-06 -53.33705973509335 -30.691298628823652 3.1805546814635168e-15 0.0 0.0 5.1489585364568375 -3.968654612920131 -27.422853238258647 -16.56656957705295 25.62840628616905 -20.183260403642546 110.30615051676352 -38.36701738446956 157.30571848376428 -6.3611093629270335e-15 -6.3611093629270335e-15 -3.531125038440127e-31 7.248995365584169 -5.2402324351871945 20.934640434139375 12.380466223885971 27.57813252758535 16.892795631150832 -109.89333978229863 -34.134349555034404 -153.98366432775123 0.0 0.0 0.0
73.5999984741211 54.70000076293945 254.6999969482422 6.009030281590013 2.9962947520249195 -176.9421544586491 0.3600087883891989 8.910191550845944 -0.04957402800173963 -5.194828473646439e-07 3.881647390480602e-07 -3.5463401831233834 107.71282580339906 -3.2551870423106837 -85.06567205906855 5.14225543477901e-07 2.7262443679984794e-06 71.50912306176869 -1.7112950788591907e-07 8.977882217707362 31.919737612597384 1.0933156717530839e-14 -7.58640144977371e-32 -7.951386703658792e-16 -90.66271021939515 2.681285217478026 92.26731746004678 -2.1134123797780545e-06 4.958852329538916e-06 -86.09470443700044 4.578019438543141e-06 -52.996140231815495 -30.832917308262537 4.770832022195275e-15 -6.3611093629270335e-15 2.648343778830095e-31 6.226120802264813 -3.6051899917954042 -27.956891150023065 -17.118084808149934 25.65043710611442 -20.001738850722077 110.93959260729702 -37.930818575568296 157.7857409233731 -1.7655625192200634e-31 -6.3611093629270335e-15 -3.1805546814635168e-15 8.071140841019115 -4.742948971314112 21.298181985716536 12.507489714755465 27.19993139705382 16.76507285227114 -109.99208231364456 -34.164622178337474 -154.21486381542272 0.0 -6.3611093629270335e-15 0.0
73.4000015258789 54.599998474121094 255.10000610351562 7.001274532911597 2.9903174133968076 -177.4115315865039 1.2839990839712052 8.861414293957335 0.021908171341585642 3.257477764425061e-07 -9.869801032973642e-08 -2.8332393231937285 107.36857935352653 -5.213417257850588 -84.47491180240515 -8.59344818728319e-08 4.944262761170947e-06 70.93514562521776 -3.379746734627914e-07 4.6092502387192615 30.434335218485597 -6.957463365701443e-16 0.0 0.0 -90.3512433686151 3.25777831726811 92.30368875197856 1.4062706674655515e-06 4.008947346787994e-06 -85.15521575393093 6.365489917005386e-06 -51.53158605190954 -31.17426652695362 0.0 0.0 0.0 6.944028202796353 -3.8773516197008657 -27.753035650424312 -17.12339064735917 25.949641037454064 -19.866194573454347 111.48483642248546 -37.668661507311924 157.91102433693268 -5.29668755766019e-31 6.3611093629270335e-15 9.54166404439055e-15 8.943939440808956 -4.999156832654608 21.260266051511724 12.514858848677129 27.15415496428757 16.704207750346583 -110.0658699936643 -33.84221415857916 -154.42955265714704 0.0 0.0 0.0
